<?xml version="1.0" standalone="no"?>
<!DOCTYPE svg PUBLIC "-//W3C//DTD SVG 20010904//EN"
 "http://www.w3.org/TR/2001/REC-SVG-20010904/DTD/svg10.dtd">
<svg version="1.0" xmlns="http://www.w3.org/2000/svg"
 width="800.000000pt" height="213.000000pt" viewBox="0 0 800.000000 213.000000"
 preserveAspectRatio="xMidYMid meet">

<g transform="translate(0.000000,213.000000) scale(0.100000,-0.100000)"
fill="#000000" stroke="none">
<path d="M0 1065 l0 -1065 4000 0 4000 0 0 1065 0 1065 -4000 0 -4000 0 0
-1065z m562 358 c17 -15 18 -39 18 -352 0 -185 4 -342 9 -349 5 -8 21 -12 37
-10 l29 3 3 330 c1 181 6 333 11 338 5 5 44 -50 92 -132 46 -77 89 -141 95
-141 6 0 53 63 104 140 51 77 97 137 101 134 11 -7 18 4 -104 -177 -54 -82
-101 -147 -103 -144 -3 3 -37 58 -77 123 -40 64 -78 119 -85 122 -9 3 -12 -60
-12 -294 0 -263 -2 -300 -17 -316 -19 -22 -52 -23 -79 -4 -18 14 -19 33 -24
363 l-5 348 -35 0 -35 0 -3 -363 c-1 -236 -6 -361 -12 -357 -6 4 -10 137 -10
358 0 303 2 356 16 375 18 26 60 29 86 5z m679 -2 l24 -19 3 -342 c2 -187 1
-349 -3 -358 -18 -41 -25 69 -23 369 0 174 -2 321 -6 328 -9 15 -49 14 -64 -1
-9 -9 -12 -101 -12 -353 0 -252 -3 -344 -12 -353 -7 -7 -27 -12 -44 -12 -59 0
-64 19 -64 238 1 107 -1 196 -3 199 -3 2 -41 -50 -86 -116 -45 -66 -85 -122
-89 -125 -8 -5 -134 177 -140 202 -9 33 19 3 73 -79 l59 -91 23 28 c12 15 55
77 95 136 40 59 76 108 81 108 4 0 7 -103 7 -229 0 -249 3 -260 55 -247 l25 6
0 341 0 340 25 24 c29 30 45 31 76 6z m624 -2 c72 -27 165 -112 200 -183 118
-241 -41 -533 -301 -554 -170 -13 -341 101 -394 263 -21 63 -16 190 10 257 35
94 134 190 229 224 58 21 191 17 256 -7z m1146 4 c11 -13 15 -89 19 -362 l5
-346 23 -3 c52 -8 52 -7 52 369 0 226 4 349 10 349 6 0 10 -126 10 -359 l0
-360 -22 -15 c-29 -21 -57 -20 -80 1 -17 15 -18 39 -18 352 0 185 -4 342 -9
349 -5 8 -21 12 -37 10 l-29 -3 -3 -362 c-1 -231 -6 -363 -12 -363 -6 0 -10
133 -10 370 0 341 1 370 18 379 26 16 68 13 83 -6z m323 -5 c14 -19 16 -67 16
-324 0 -301 0 -302 22 -307 12 -3 30 -2 40 4 16 9 18 23 18 124 l0 115 135 0
c134 0 135 0 135 23 0 42 -17 47 -147 47 l-123 0 0 120 0 120 144 0 c150 0
174 7 160 44 -9 23 -30 26 -197 29 -206 3 -198 21 11 25 161 2 163 2 187 -22
30 -30 31 -45 4 -80 -20 -26 -22 -26 -155 -26 l-134 0 0 -90 0 -90 115 0 c102
0 117 -2 135 -20 24 -24 26 -67 3 -92 -14 -15 -32 -18 -135 -18 l-118 0 0 -98
c0 -112 -13 -142 -60 -142 -60 0 -60 2 -60 328 0 163 -4 303 -9 310 -5 8 -21
12 -37 10 l-29 -3 0 -345 0 -345 236 -3 c203 -2 238 0 249 13 11 13 10 19 -5
35 -16 18 -31 20 -132 20 -69 0 -113 4 -113 10 0 15 243 13 258 -2 17 -17 15
-74 -4 -92 -14 -14 -47 -16 -251 -14 l-236 3 -16 25 c-14 22 -16 63 -11 368 5
372 4 362 62 362 17 0 33 -9 42 -22z m1309 10 c9 -7 79 -170 155 -363 183
-463 176 -462 180 -25 1 179 0 335 -3 348 -5 19 -11 23 -38 20 l-32 -3 -3
-202 c-1 -124 -6 -203 -12 -203 -6 0 -10 77 -10 202 0 222 4 238 61 238 57 0
59 -10 59 -380 0 -288 -2 -339 -16 -358 -18 -27 -36 -28 -56 -4 -8 9 -75 168
-147 352 -73 184 -138 341 -145 348 -16 17 -56 0 -56 -23 0 -8 52 -149 116
-315 125 -326 132 -357 81 -374 -34 -12 -56 -1 -76 39 -7 16 -69 173 -136 349
-78 204 -128 321 -136 321 -12 0 -14 -60 -14 -340 l0 -340 35 0 35 0 3 193 c1
119 6 192 12 192 7 0 9 -71 8 -197 l-3 -197 -27 -16 c-25 -13 -31 -13 -55 0
l-28 16 -3 346 c-2 305 0 348 14 362 28 29 50 2 96 -116 24 -62 84 -219 133
-348 90 -234 90 -235 120 -235 23 0 31 5 33 20 1 11 -49 155 -113 320 -63 165
-115 309 -115 320 0 31 27 59 61 64 3 1 13 -5 22 -11z m560 -6 c15 -16 17 -60
19 -363 l3 -344 29 -3 c16 -2 32 2 37 10 5 7 9 169 9 361 0 224 4 347 10 347
6 0 10 -126 10 -357 0 -391 0 -393 -60 -393 -59 0 -59 3 -62 381 l-3 344 -35
0 -35 0 -3 -362 c-1 -231 -6 -363 -12 -363 -6 0 -10 130 -10 362 0 322 2 363
17 380 21 23 65 23 86 0z m987 -352 l0 -360 25 -6 c55 -14 55 -12 55 362 l0
343 22 15 c30 21 54 20 78 -4 18 -18 20 -33 20 -155 l0 -135 80 0 80 0 0 137
c0 150 8 173 59 173 57 0 56 11 61 -372 l5 -353 35 0 35 0 3 358 c1 226 6 357
12 357 6 0 10 -129 10 -357 0 -318 -2 -358 -17 -375 -19 -22 -52 -23 -79 -4
-18 14 -19 33 -24 363 l-5 348 -35 0 -35 0 -3 -153 -3 -153 -102 3 -102 3 3
140 c4 153 -1 170 -50 163 l-23 -3 -5 -346 c-4 -273 -8 -349 -19 -362 -16 -20
-72 -22 -89 -5 -16 16 -18 753 -2 743 6 -4 10 -137 10 -365z m913 359 c12 -7
24 -14 27 -16 3 -3 7 -161 10 -351 l5 -347 35 0 35 0 5 353 c4 299 7 354 20
362 8 5 74 10 145 10 147 0 175 -10 175 -59 0 -52 -16 -60 -125 -63 l-100 -3
-3 -313 c-1 -202 -6 -311 -12 -307 -6 4 -10 127 -10 326 l0 319 104 0 c82 0
106 3 117 16 9 11 10 20 2 32 -9 15 -30 17 -149 17 l-139 0 -5 -348 c-5 -330
-6 -349 -24 -363 -26 -19 -55 -18 -78 3 -17 15 -18 39 -18 353 0 248 -3 339
-12 348 -8 8 -48 12 -114 12 -80 0 -104 -3 -115 -16 -9 -11 -10 -20 -2 -32 8
-13 31 -18 97 -22 110 -6 118 -24 11 -28 -105 -3 -130 9 -130 63 0 32 5 42 25
52 31 16 193 17 223 2z m-4726 -11 c5 -7 63 -127 128 -266 65 -139 123 -251
128 -249 11 3 176 442 177 469 0 25 -33 40 -53 25 -8 -7 -43 -83 -76 -170 -61
-163 -67 -175 -77 -164 -8 7 115 327 134 350 33 38 92 13 92 -40 0 -10 -39
-121 -86 -248 -47 -126 -90 -242 -96 -257 -5 -16 -13 -28 -16 -28 -4 0 -65
126 -137 280 -71 154 -134 281 -140 283 -15 6 -55 -11 -55 -23 0 -7 60 -145
134 -308 74 -163 137 -307 141 -320 10 -35 -18 -72 -55 -72 -18 0 -34 7 -41
18 -30 50 -307 658 -302 665 3 5 9 5 13 0 4 -4 74 -153 156 -330 82 -178 155
-325 162 -328 17 -6 52 12 52 27 0 6 -63 150 -140 319 -77 170 -140 316 -140
325 0 43 73 73 97 42z m3500 -3 c95 -28 136 -103 78 -141 -25 -16 -29 -16 -93
10 -104 40 -186 32 -258 -27 -98 -81 -114 -262 -32 -361 44 -54 109 -88 171
-90 39 -1 52 3 55 15 2 10 -22 27 -80 55 -47 22 -90 51 -102 67 -29 39 -35
151 -11 201 34 71 114 108 197 92 41 -8 83 -39 74 -55 -5 -8 -15 -5 -33 9 -19
15 -41 20 -81 20 -102 0 -158 -62 -150 -165 6 -75 28 -101 113 -140 82 -38
104 -63 86 -101 -9 -21 -17 -24 -68 -24 -46 0 -69 6 -110 30 -92 53 -135 132
-135 246 0 151 94 265 233 281 38 5 67 0 130 -22 73 -25 82 -26 97 -12 13 14
13 19 2 32 -40 49 -173 82 -260 65 -80 -15 -133 -45 -189 -106 -64 -70 -86
-132 -86 -244 0 -77 3 -92 33 -153 58 -117 176 -190 307 -192 100 0 95 -9 95
172 0 182 7 203 65 203 55 0 62 -21 64 -200 1 -85 6 -159 11 -163 4 -5 18 -7
31 -5 l24 3 3 178 c2 148 5 177 17 177 13 0 15 -27 15 -175 0 -162 -2 -177
-20 -195 -23 -23 -58 -26 -86 -6 -17 13 -19 30 -22 185 -3 153 -5 171 -21 176
-45 14 -49 3 -52 -172 -4 -161 -5 -165 -29 -185 -35 -29 -174 -22 -243 11 -71
35 -148 110 -182 178 -28 54 -30 66 -30 168 0 104 2 114 33 177 39 80 111 148
185 177 64 25 182 27 254 6z m693 -560 c0 -110 -4 -175 -10 -175 -6 0 -10 60
-10 160 l0 160 -80 0 -80 0 0 -155 c0 -85 -4 -155 -8 -155 -10 0 -26 316 -17
330 4 6 51 10 106 10 l99 0 0 -175z"/>
<path d="M1652 1410 c-99 -21 -194 -98 -243 -198 -20 -40 -24 -62 -24 -152 0
-94 3 -110 27 -155 32 -62 113 -139 176 -168 38 -18 65 -22 147 -22 89 0 106
3 150 27 65 34 130 99 163 163 30 58 42 192 23 262 -25 93 -125 196 -221 228
-60 19 -145 26 -198 15z m196 -101 c103 -51 155 -134 155 -249 2 -248 -278
-379 -461 -215 -71 64 -96 126 -90 226 5 90 32 145 102 206 54 47 90 61 172
62 49 1 73 -5 122 -30z"/>
<path d="M1625 1296 c-88 -38 -145 -124 -153 -226 -4 -61 -1 -76 23 -126 42
-87 130 -142 229 -143 147 -3 256 107 256 257 0 107 -48 182 -145 228 -57 27
-160 32 -210 10z m183 -75 c104 -54 129 -197 49 -288 -73 -83 -177 -85 -259
-6 -86 84 -65 237 42 294 46 24 121 24 168 0z"/>
<path d="M1645 1191 c-55 -33 -69 -58 -73 -124 -3 -52 0 -67 20 -97 62 -92
201 -93 264 -1 35 52 34 137 -2 181 -15 17 -39 37 -55 45 -40 21 -117 19 -154
-4z"/>
</g>
</svg>
